<svg width="760" height="451" viewBox="0 0 760 451" fill="none" xmlns="http://www.w3.org/2000/svg">
<path d="M160.014 448.295C129.332 448.295 102.06 443.04 78.1961 432.528C54.4745 422.017 35.7245 407.386 21.9461 388.636C8.16767 369.886 0.852329 348.224 5.75185e-05 323.651H80.1137C80.8239 335.44 84.7302 345.739 91.8324 354.545C98.9347 363.21 108.381 369.957 120.171 374.787C131.96 379.617 145.171 382.031 159.801 382.031C175.426 382.031 189.276 379.332 201.349 373.935C213.423 368.395 222.869 360.724 229.688 350.923C236.506 341.122 239.844 329.83 239.702 317.045C239.844 303.835 236.435 292.188 229.474 282.102C222.514 272.017 212.429 264.134 199.219 258.452C186.151 252.77 170.384 249.929 151.918 249.929H113.352V188.992H151.918C167.117 188.992 180.398 186.364 191.761 181.108C203.267 175.852 212.287 168.466 218.821 158.949C225.355 149.29 228.551 138.139 228.409 125.497C228.551 113.139 225.781 102.415 220.099 93.3239C214.56 84.0909 206.676 76.9176 196.449 71.804C186.364 66.6904 174.503 64.1335 160.867 64.1335C147.514 64.1335 135.156 66.5483 123.793 71.3779C112.429 76.2074 103.267 83.0966 96.3069 92.0455C89.3467 100.852 85.6535 111.364 85.2273 123.58H9.16199C9.73017 99.1478 16.7614 77.6989 30.2557 59.233C43.8921 40.625 62.0739 26.1364 84.8012 15.7671C107.528 5.25572 133.026 2.81334e-05 161.293 2.81334e-05C190.412 2.81334e-05 215.696 5.46878 237.145 16.4063C258.736 27.2017 275.426 41.7614 287.216 60.0853C299.006 78.4091 304.901 98.6506 304.901 120.81C305.043 145.384 297.798 165.98 283.168 182.599C268.679 199.219 249.645 210.085 226.065 215.199V218.608C256.747 222.869 280.256 234.233 296.591 252.699C313.068 271.023 321.236 293.821 321.094 321.094C321.094 345.526 314.134 367.401 300.213 386.719C286.435 405.895 267.401 420.952 243.111 431.889C218.963 442.827 191.264 448.295 160.014 448.295ZM375.705 447.017C362.779 447.017 351.7 442.472 342.467 433.381C333.234 424.29 328.688 413.21 328.83 400.142C328.688 387.358 333.234 376.42 342.467 367.33C351.7 358.239 362.779 353.693 375.705 353.693C388.205 353.693 399.072 358.239 408.305 367.33C417.68 376.42 422.438 387.358 422.58 400.142C422.438 408.807 420.166 416.69 415.762 423.793C411.501 430.895 405.819 436.577 398.717 440.838C391.756 444.957 384.086 447.017 375.705 447.017ZM591.663 450.639C556.577 450.639 526.464 441.761 501.322 424.006C476.322 406.108 457.075 380.327 443.58 346.662C430.228 312.855 423.552 272.159 423.552 224.574C423.694 176.989 430.441 136.506 443.793 103.125C457.288 69.6023 476.535 44.0341 501.535 26.4205C526.677 8.80685 556.72 2.81334e-05 591.663 2.81334e-05C626.606 2.81334e-05 656.649 8.80685 681.791 26.4205C706.933 44.0341 726.18 69.6023 739.532 103.125C753.026 136.648 759.773 177.131 759.773 224.574C759.773 272.301 753.026 313.068 739.532 346.875C726.18 380.54 706.933 406.25 681.791 424.006C656.791 441.761 626.748 450.639 591.663 450.639ZM591.663 383.949C618.935 383.949 640.455 370.526 656.222 343.679C672.131 316.69 680.086 276.989 680.086 224.574C680.086 189.915 676.464 160.795 669.22 137.216C661.975 113.636 651.748 95.8807 638.538 83.9489C625.327 71.875 609.702 65.8381 591.663 65.8381C564.532 65.8381 543.083 79.3324 527.316 106.321C511.549 133.168 503.595 172.585 503.452 224.574C503.31 259.375 506.791 288.636 513.893 312.358C521.137 336.08 531.364 353.977 544.575 366.051C557.785 377.983 573.481 383.949 591.663 383.949Z" fill="white"/>
</svg>
