<svg width="288" height="63" viewBox="0 0 288 63" fill="none" xmlns="http://www.w3.org/2000/svg">
<path d="M100.744 62.08V16.64H108.68L109.192 27.072L108.104 25.92C108.659 23.019 109.939 20.651 111.944 18.816C113.992 16.939 116.509 16 119.496 16C122.099 16 124.381 16.661 126.344 17.984C128.307 19.264 129.864 21.141 131.016 23.616C132.168 26.091 132.744 29.077 132.744 32.576C132.744 36.075 132.147 39.083 130.952 41.6C129.8 44.075 128.221 45.973 126.216 47.296C124.211 48.619 121.928 49.28 119.368 49.28C116.595 49.28 114.291 48.469 112.456 46.848C110.621 45.227 109.363 43.179 108.68 40.704L109.576 39.36V62.08H100.744ZM116.68 42.56C118.899 42.56 120.648 41.728 121.928 40.064C123.208 38.357 123.848 35.883 123.848 32.64C123.848 29.397 123.208 26.944 121.928 25.28C120.691 23.573 118.984 22.72 116.808 22.72C115.357 22.72 114.077 23.125 112.968 23.936C111.901 24.704 111.069 25.835 110.472 27.328C109.875 28.779 109.576 30.549 109.576 32.64C109.576 34.688 109.853 36.459 110.408 37.952C111.005 39.403 111.816 40.533 112.84 41.344C113.907 42.155 115.187 42.56 116.68 42.56ZM151.318 49.28C148.203 49.28 145.344 48.725 142.742 47.616C140.139 46.464 138.006 44.821 136.342 42.688L141.014 37.696C141.995 39.317 143.36 40.619 145.11 41.6C146.902 42.581 148.907 43.072 151.126 43.072C152.662 43.072 153.92 42.795 154.902 42.24C155.926 41.643 156.438 40.832 156.438 39.808C156.438 39.083 156.203 38.464 155.734 37.952C155.264 37.44 154.326 37.035 152.918 36.736L147.67 35.648C144 34.837 141.398 33.664 139.862 32.128C138.326 30.592 137.558 28.587 137.558 26.112C137.558 24.363 138.07 22.741 139.094 21.248C140.16 19.712 141.718 18.453 143.766 17.472C145.856 16.491 148.416 16 151.446 16C154.603 16 157.334 16.533 159.638 17.6C161.984 18.667 163.798 20.16 165.078 22.08L160.406 26.88C159.51 25.344 158.251 24.192 156.63 23.424C155.051 22.613 153.451 22.208 151.83 22.208C150.635 22.208 149.632 22.357 148.822 22.656C148.011 22.912 147.392 23.296 146.966 23.808C146.539 24.277 146.326 24.853 146.326 25.536C146.326 26.261 146.624 26.901 147.222 27.456C147.819 28.011 148.843 28.437 150.294 28.736L156.63 30.016C159.744 30.656 161.963 31.723 163.286 33.216C164.651 34.709 165.334 36.523 165.334 38.656C165.334 41.728 164.139 44.267 161.75 46.272C159.36 48.277 155.883 49.28 151.318 49.28ZM198.502 16.64L186.15 50.432C185.126 53.291 183.995 55.595 182.758 57.344C181.563 59.093 180.113 60.373 178.406 61.184C176.742 61.995 174.737 62.4 172.39 62.4C170.726 62.4 169.211 62.208 167.846 61.824C166.481 61.44 165.286 60.907 164.262 60.224L166.182 53.952C166.907 54.592 167.697 55.04 168.55 55.296C169.446 55.552 170.47 55.68 171.622 55.68C173.03 55.68 174.118 55.381 174.886 54.784C175.654 54.187 176.294 53.205 176.806 51.84L177.894 49.088L174.374 40.704L164.838 16.64H174.63L180.454 36.032L182.054 42.304L183.91 35.648L189.606 16.64H198.502ZM202.029 48.64V16.64H209.901L210.413 26.432L209.389 25.408C210.114 22.293 211.501 19.947 213.549 18.368C215.597 16.789 218.072 16 220.973 16C223.149 16 225.069 16.448 226.733 17.344C228.397 18.197 229.698 19.477 230.637 21.184C231.618 22.891 232.109 25.024 232.109 27.584V48.64H223.277V30.016C223.277 27.413 222.765 25.579 221.741 24.512C220.717 23.445 219.394 22.912 217.773 22.912C216.621 22.912 215.512 23.211 214.445 23.808C213.378 24.363 212.504 25.28 211.821 26.56C211.181 27.84 210.861 29.504 210.861 31.552V48.64H202.029ZM253.895 16C256.753 16 259.164 16.427 261.127 17.28C263.089 18.133 264.647 19.264 265.799 20.672C266.993 22.08 267.825 23.68 268.295 25.472L260.103 28.416C259.719 26.453 259.036 24.981 258.055 24C257.116 23.019 255.772 22.528 254.023 22.528C252.487 22.528 251.164 22.912 250.055 23.68C248.945 24.448 248.113 25.579 247.559 27.072C247.004 28.565 246.727 30.443 246.727 32.704C246.727 34.965 247.025 36.843 247.623 38.336C248.22 39.829 249.073 40.939 250.183 41.664C251.292 42.389 252.593 42.752 254.087 42.752C255.324 42.752 256.369 42.539 257.223 42.112C258.119 41.643 258.823 40.981 259.335 40.128C259.889 39.275 260.273 38.229 260.487 36.992L268.423 39.616C268.039 41.493 267.207 43.179 265.927 44.672C264.689 46.123 263.068 47.253 261.063 48.064C259.1 48.875 256.796 49.28 254.151 49.28C250.908 49.28 248.049 48.619 245.575 47.296C243.143 45.973 241.244 44.075 239.879 41.6C238.513 39.125 237.831 36.139 237.831 32.64C237.831 29.141 238.513 26.155 239.879 23.68C241.244 21.205 243.121 19.307 245.511 17.984C247.943 16.661 250.737 16 253.895 16Z" fill="black"/>
<path d="M0.639999 48.64V10.816C0.639999 9.96299 0.618996 8.875 0.575996 7.552C0.575996 6.187 0.532998 4.864 0.447998 3.584C0.362998 2.304 0.213 1.27999 0 0.511993L0.191994 0H9.6V48.64H0.639999Z" fill="black"/>
<path d="M79.2 14.64C88.589 14.64 96.2 22.251 96.2 31.64C96.2 41.029 88.589 48.64 79.2 48.64H31.2C21.811 48.64 14.2 41.029 14.2 31.64C14.2 22.251 21.811 14.64 31.2 14.64H79.2ZM31.2 21.64C25.677 21.64 21.2 26.117 21.2 31.64C21.2 37.163 25.677 41.64 31.2 41.64H78.2C83.723 41.64 88.2 37.163 88.2 31.64C88.2 26.117 83.723 21.64 78.2 21.64H31.2Z" fill="black"/>
<path d="M273.16 12.44C273.16 10.893 273.447 9.56701 274.02 8.46001C274.607 7.34001 275.42 6.48699 276.46 5.89999C277.513 5.29999 278.733 5 280.12 5C281.507 5 282.72 5.29999 283.76 5.89999C284.813 6.48699 285.627 7.34001 286.2 8.46001C286.787 9.56701 287.08 10.893 287.08 12.44C287.08 13.987 286.787 15.32 286.2 16.44C285.627 17.547 284.813 18.4 283.76 19C282.72 19.587 281.507 19.88 280.12 19.88C278.733 19.88 277.513 19.587 276.46 19C275.42 18.4 274.607 17.547 274.02 16.44C273.447 15.32 273.16 13.987 273.16 12.44ZM274.6 12.44C274.6 13.827 274.833 14.98 275.3 15.9C275.767 16.807 276.413 17.487 277.24 17.94C278.067 18.38 279.027 18.6 280.12 18.6C281.213 18.6 282.173 18.373 283 17.92C283.827 17.453 284.473 16.767 284.94 15.86C285.407 14.94 285.64 13.8 285.64 12.44C285.64 11.08 285.407 9.94699 284.94 9.03999C284.473 8.11999 283.827 7.433 283 6.98C282.173 6.513 281.213 6.28 280.12 6.28C279.027 6.28 278.067 6.50701 277.24 6.96001C276.413 7.40001 275.767 8.08 275.3 9C274.833 9.907 274.6 11.053 274.6 12.44ZM276.52 12.44C276.52 11.24 276.887 10.26 277.62 9.5C278.353 8.74 279.4 8.36 280.76 8.36C281.107 8.36 281.447 8.387 281.78 8.44C282.113 8.493 282.387 8.567 282.6 8.66V9.88H282.52C282.307 9.773 282.047 9.693 281.74 9.64C281.433 9.587 281.107 9.56 280.76 9.56C279.88 9.56 279.18 9.79299 278.66 10.26C278.14 10.713 277.88 11.44 277.88 12.44C277.88 13.44 278.14 14.173 278.66 14.64C279.18 15.093 279.88 15.32 280.76 15.32C281.107 15.32 281.433 15.293 281.74 15.24C282.047 15.173 282.307 15.093 282.52 15H282.6V16.22C282.387 16.313 282.113 16.387 281.78 16.44C281.447 16.493 281.107 16.52 280.76 16.52C279.4 16.52 278.353 16.14 277.62 15.38C276.887 14.62 276.52 13.64 276.52 12.44Z" fill="black"/>
</svg>
