<svg width="2256" height="726" viewBox="0 0 2256 726" fill="none" xmlns="http://www.w3.org/2000/svg">
<path d="M153.622 325C152.959 316.714 149.852 310.251 144.3 305.611C138.832 300.971 130.504 298.651 119.318 298.651C112.192 298.651 106.351 299.521 101.793 301.261C97.3189 302.918 94.0045 305.196 91.8501 308.097C89.6958 310.997 88.5772 314.311 88.4943 318.04C88.3286 321.106 88.8672 323.881 90.1101 326.367C91.4358 328.77 93.5073 330.966 96.3246 332.955C99.1418 334.86 102.746 336.6 107.138 338.175C111.529 339.749 116.75 341.158 122.798 342.401L143.679 346.875C157.765 349.858 169.821 353.794 179.847 358.683C189.873 363.571 198.076 369.33 204.457 375.959C210.837 382.505 215.518 389.879 218.501 398.082C221.567 406.286 223.142 415.234 223.224 424.929C223.142 441.667 218.957 455.836 210.671 467.436C202.385 479.036 190.536 487.861 175.124 493.91C159.795 499.959 141.359 502.983 119.815 502.983C97.6918 502.983 78.3854 499.71 61.8963 493.164C45.4901 486.618 32.7296 476.551 23.6151 462.962C14.5833 449.29 10.026 431.806 9.94318 410.511H75.5682C75.9825 418.3 77.9297 424.846 81.4098 430.149C84.8899 435.452 89.7786 439.471 96.076 442.205C102.456 444.94 110.038 446.307 118.821 446.307C126.196 446.307 132.369 445.395 137.34 443.572C142.312 441.75 146.082 439.222 148.651 435.991C151.219 432.759 152.545 429.072 152.628 424.929C152.545 421.035 151.261 417.637 148.775 414.737C146.372 411.754 142.395 409.103 136.843 406.783C131.291 404.38 123.793 402.143 114.347 400.071L88.9915 394.602C66.4536 389.714 48.6802 381.552 35.6712 370.117C22.745 358.6 16.3234 342.898 16.4062 323.011C16.3234 306.854 20.6321 292.726 29.3324 280.629C38.1155 268.448 50.2545 258.961 65.7493 252.166C81.3269 245.372 99.1832 241.974 119.318 241.974C139.867 241.974 157.641 245.413 172.638 252.29C187.636 259.168 199.195 268.862 207.315 281.374C215.518 293.803 219.661 308.345 219.744 325H153.622ZM242.551 301.136V245.455H463.787V301.136H387.225V500H319.114V301.136H242.551ZM640.434 245.455H709.539V408.523C709.539 427.912 704.899 444.691 695.619 458.86C686.421 472.946 673.578 483.842 657.089 491.548C640.6 499.171 621.459 502.983 599.667 502.983C577.709 502.983 558.486 499.171 541.997 491.548C525.508 483.842 512.664 472.946 503.467 458.86C494.352 444.691 489.795 427.912 489.795 408.523V245.455H558.9V402.557C558.9 410.429 560.64 417.472 564.12 423.686C567.6 429.818 572.406 434.624 578.538 438.104C584.752 441.584 591.795 443.324 599.667 443.324C607.622 443.324 614.665 441.584 620.796 438.104C626.928 434.624 631.734 429.818 635.214 423.686C638.694 417.472 640.434 410.429 640.434 402.557V245.455ZM840.323 500H742.383V245.455H839.329C865.513 245.455 888.133 250.55 907.191 260.742C926.332 270.851 941.081 285.434 951.438 304.492C961.879 323.467 967.099 346.212 967.099 372.727C967.099 399.242 961.92 422.029 951.562 441.087C941.205 460.062 926.539 474.645 907.564 484.837C888.589 494.946 866.175 500 840.323 500ZM811.488 441.335H837.837C850.432 441.335 861.162 439.305 870.028 435.245C878.977 431.185 885.772 424.183 890.412 414.24C895.135 404.297 897.496 390.459 897.496 372.727C897.496 354.995 895.094 341.158 890.288 331.214C885.565 321.271 878.604 314.27 869.407 310.21C860.292 306.149 849.106 304.119 835.849 304.119H811.488V441.335ZM1068.18 245.455V500H999.072V245.455H1068.18ZM1347.52 372.727C1347.52 401.065 1342.01 424.97 1330.99 444.442C1319.97 463.832 1305.09 478.539 1286.37 488.565C1267.64 498.509 1246.76 503.48 1223.73 503.48C1200.53 503.48 1179.56 498.467 1160.84 488.441C1142.19 478.332 1127.36 463.583 1116.34 444.194C1105.4 424.722 1099.93 400.9 1099.93 372.727C1099.93 344.389 1105.4 320.526 1116.34 301.136C1127.36 281.664 1142.19 266.957 1160.84 257.013C1179.56 246.987 1200.53 241.974 1223.73 241.974C1246.76 241.974 1267.64 246.987 1286.37 257.013C1305.09 266.957 1319.97 281.664 1330.99 301.136C1342.01 320.526 1347.52 344.389 1347.52 372.727ZM1276.42 372.727C1276.42 357.481 1274.39 344.638 1270.33 334.197C1266.36 323.674 1260.43 315.72 1252.56 310.334C1244.77 304.865 1235.16 302.131 1223.73 302.131C1212.29 302.131 1202.64 304.865 1194.77 310.334C1186.98 315.72 1181.05 323.674 1176.99 334.197C1173.02 344.638 1171.03 357.481 1171.03 372.727C1171.03 387.973 1173.02 400.858 1176.99 411.381C1181.05 421.822 1186.98 429.776 1194.77 435.245C1202.64 440.631 1212.29 443.324 1223.73 443.324C1235.16 443.324 1244.77 440.631 1252.56 435.245C1260.43 429.776 1266.36 421.822 1270.33 411.381C1274.39 400.858 1276.42 387.973 1276.42 372.727Z" fill="white"/>
<path d="M1620.38 586.966C1589.7 586.966 1562.43 581.71 1538.57 571.199C1514.84 560.687 1496.09 546.057 1482.32 527.307C1468.54 508.557 1461.22 486.895 1460.37 462.321H1540.48C1541.19 474.111 1545.1 484.409 1552.2 493.216C1559.3 501.881 1568.75 508.628 1580.54 513.457C1592.33 518.287 1605.54 520.702 1620.17 520.702C1635.8 520.702 1649.64 518.003 1661.72 512.605C1673.79 507.065 1683.24 499.395 1690.06 489.594C1696.88 479.793 1700.21 468.5 1700.07 455.716C1700.21 442.506 1696.8 430.858 1689.84 420.773C1682.88 410.687 1672.8 402.804 1659.59 397.122C1646.52 391.44 1630.75 388.599 1612.29 388.599H1573.72V327.662H1612.29C1627.49 327.662 1640.77 325.034 1652.13 319.778C1663.64 314.523 1672.66 307.136 1679.19 297.619C1685.72 287.96 1688.92 276.81 1688.78 264.168C1688.92 251.81 1686.15 241.085 1680.47 231.994C1674.93 222.761 1667.05 215.588 1656.82 210.474C1646.73 205.361 1634.87 202.804 1621.24 202.804C1607.88 202.804 1595.53 205.219 1584.16 210.048C1572.8 214.878 1563.64 221.767 1556.68 230.716C1549.72 239.523 1546.02 250.034 1545.6 262.25H1469.53C1470.1 237.818 1477.13 216.369 1490.62 197.903C1504.26 179.295 1522.44 164.807 1545.17 154.438C1567.9 143.926 1593.39 138.67 1621.66 138.67C1650.78 138.67 1676.07 144.139 1697.51 155.077C1719.11 165.872 1735.8 180.432 1747.59 198.756C1759.38 217.08 1765.27 237.321 1765.27 259.48C1765.41 284.054 1758.17 304.651 1743.54 321.27C1729.05 337.889 1710.01 348.756 1686.43 353.869V357.278C1717.12 361.54 1740.63 372.903 1756.96 391.369C1773.44 409.693 1781.61 432.491 1781.46 459.764C1781.46 484.196 1774.5 506.071 1760.58 525.389C1746.8 544.565 1727.77 559.622 1703.48 570.56C1679.33 581.497 1651.63 586.966 1620.38 586.966ZM1836.07 585.688C1823.15 585.688 1812.07 581.142 1802.84 572.051C1793.6 562.96 1789.06 551.881 1789.2 538.812C1789.06 526.028 1793.6 515.091 1802.84 506C1812.07 496.909 1823.15 492.364 1836.07 492.364C1848.57 492.364 1859.44 496.909 1868.67 506C1878.05 515.091 1882.81 526.028 1882.95 538.812C1882.81 547.477 1880.53 555.361 1876.13 562.463C1871.87 569.565 1866.19 575.247 1859.09 579.509C1852.13 583.628 1844.46 585.688 1836.07 585.688ZM2052.03 589.31C2016.95 589.31 1986.83 580.432 1961.69 562.676C1936.69 544.778 1917.44 518.997 1903.95 485.332C1890.6 451.526 1883.92 410.83 1883.92 363.244C1884.06 315.659 1890.81 275.176 1904.16 241.795C1917.66 208.273 1936.9 182.705 1961.9 165.091C1987.05 147.477 2017.09 138.67 2052.03 138.67C2086.98 138.67 2117.02 147.477 2142.16 165.091C2167.3 182.705 2186.55 208.273 2199.9 241.795C2213.4 275.318 2220.14 315.801 2220.14 363.244C2220.14 410.972 2213.4 451.739 2199.9 485.545C2186.55 519.21 2167.3 544.92 2142.16 562.676C2117.16 580.432 2087.12 589.31 2052.03 589.31ZM2052.03 522.619C2079.3 522.619 2100.82 509.196 2116.59 482.349C2132.5 455.361 2140.46 415.659 2140.46 363.244C2140.46 328.585 2136.83 299.466 2129.59 275.886C2122.34 252.307 2112.12 234.551 2098.91 222.619C2085.7 210.545 2070.07 204.509 2052.03 204.509C2024.9 204.509 2003.45 218.003 1987.69 244.991C1971.92 271.838 1963.96 311.256 1963.82 363.244C1963.68 398.045 1967.16 427.307 1974.26 451.028C1981.51 474.75 1991.73 492.648 2004.94 504.722C2018.15 516.653 2033.85 522.619 2052.03 522.619Z" fill="white"/>
</svg>
